<?xml version="1.0" encoding="UTF-8" standalone="no"?>
<!-- Created with Inkscape (http://www.inkscape.org/) -->

<svg
   version="1.1"
   id="svg2"
   width="665.33331"
   height="154.66667"
   viewBox="0 0 665.33331 154.66667"
   sodipodi:docname="Elliott and Murray.ai"
   xmlns:inkscape="http://www.inkscape.org/namespaces/inkscape"
   xmlns:sodipodi="http://sodipodi.sourceforge.net/DTD/sodipodi-0.dtd"
   xmlns="http://www.w3.org/2000/svg"
   xmlns:svg="http://www.w3.org/2000/svg">
  <defs
     id="defs6">
    <clipPath
       clipPathUnits="userSpaceOnUse"
       id="clipPath16">
      <path
         d="M 0,116 H 499 V 0 H 0 Z"
         id="path14" />
    </clipPath>
  </defs>
  <sodipodi:namedview
     id="namedview4"
     pagecolor="#ffffff"
     bordercolor="#000000"
     borderopacity="0.25"
     inkscape:showpageshadow="2"
     inkscape:pageopacity="0.0"
     inkscape:pagecheckerboard="0"
     inkscape:deskcolor="#d1d1d1" />
  <g
     id="g8"
     inkscape:groupmode="layer"
     inkscape:label="Elliott and Murray"
     transform="matrix(1.3333333,0,0,-1.3333333,0,154.66667)">
    <g
       id="g10">
      <g
         id="g12"
         clip-path="url(#clipPath16)">
        <g
           id="g18"
           transform="translate(109.7949,40.2651)">
          <path
             d="m 0,0 -0.001,0.156 v 21.1 h -0.186 v 0.005 h -0.242 l -0.013,-0.005 h -10.601 -0.86 c 0.143,-8.896 -0.009,-17.801 0.045,-26.697 -0.072,-5.557 0.286,-11.15 -0.35,-16.688 -0.609,-7.109 -10.244,-9.214 -14.537,-4.387 -1.702,1.908 -2.159,4.602 -2.24,7.119 -0.251,13.526 0.215,27.071 -0.242,40.588 -3.872,-0.038 -7.734,-0.038 -11.606,-0.056 -0.197,-13.536 -0.027,-27.072 -0.099,-40.598 0.018,-5.444 0.341,-11.469 3.899,-15.818 3.056,-3.882 7.923,-5.463 12.556,-5.996 6.399,-0.552 13.47,-0.14 18.731,4.153 4.266,3.517 5.583,9.504 5.664,14.911 0.044,3.854 0.054,7.726 0.054,11.59 l 0.027,-0.103 V 0 Z"
             style="fill:#f8ce78;fill-opacity:1;fill-rule:nonzero;stroke:none"
             id="path20" />
        </g>
        <g
           id="g22"
           transform="translate(155.8228,61.4277)">
          <path
             d="m 0,0 c -3.854,0.019 -7.708,0.01 -11.561,-0.056 l 0.009,-61.579 c 3.863,-0.047 7.716,-0.038 11.579,-0.047 z"
             style="fill:#f8ce78;fill-opacity:1;fill-rule:nonzero;stroke:none"
             id="path24" />
        </g>
        <g
           id="g26"
           transform="translate(221.1299,11.0923)">
          <path
             d="M 0,0 H -18.373 V 1.01 50.354 H -18.74 L -30.238,50.326 C -30.409,29.775 -30.292,9.233 -30.283,-11.31 h 0.045 c 10.584,-0.056 21.176,-0.056 31.77,-0.009 L 1.657,0 C 1.102,-0.009 0.556,-0.009 0,0"
             style="fill:#f8ce78;fill-opacity:1;fill-rule:nonzero;stroke:none"
             id="path28" />
        </g>
        <g
           id="g30"
           transform="translate(282.6455,20.877)">
          <path
             d="m 0,0 c 0.071,-3.732 -1.963,-7.559 -5.432,-8.821 -3.907,-0.73 -7.885,-0.318 -11.829,-0.346 0.009,12.591 0,25.191 0,37.782 3.934,-0.075 7.913,0.346 11.803,-0.365 3.522,-1.104 5.476,-4.948 5.439,-8.625 C 0.135,13.086 0.08,6.539 0,0 m 11.74,13.068 c -0.161,6.688 0.897,13.994 -2.563,20.018 -2.093,3.651 -5.725,5.801 -9.609,6.77 l -0.002,0.002 c -0.004,0.001 -0.01,0.002 -0.015,0.003 -1.364,0.339 -2.76,0.535 -4.131,0.597 -0.44,0.018 -0.879,0.024 -1.319,0.038 -11.464,1.004 -23.183,0.167 -23.183,0.167 -0.018,-20.57 0.09,-41.14 -0.054,-61.71 6.668,-0.169 13.354,-0.057 20.031,-0.103 3.692,0 7.528,-0.131 11.014,1.375 2.312,0.935 4.194,2.6 5.933,4.406 1.236,1.291 2.141,2.871 2.617,4.621 2.088,7.689 1.057,15.893 1.281,23.816"
             style="fill:#f8ce78;fill-opacity:1;fill-rule:nonzero;stroke:none"
             id="path32" />
        </g>
        <g
           id="g34"
           transform="translate(343.8926,11.1763)">
          <path
             d="m 0,0 h -3.495 v 13.891 c 1.792,0.019 3.575,0.01 5.359,0 1.685,-0.009 3.361,-0.018 5.036,0 h 5.486 V 26.042 H -3.647 c 0.008,4.088 0.017,8.176 0.017,12.255 h 18.193 c 0.556,0 1.102,0 1.658,-0.009 v 0.009 11.898 0.01 H 15.164 C 7.859,50.289 0.556,50.251 -6.758,50.251 l -8.532,0.02 -0.089,-61.683 c 10.584,-0.009 21.168,-0.038 31.752,0.009 L 16.373,0 C 10.916,0 5.458,0.047 0,0"
             style="fill:#f8ce78;fill-opacity:1;fill-rule:nonzero;stroke:none"
             id="path36" />
        </g>
        <g
           id="g38"
           transform="translate(405.5967,48.6499)">
          <path
             d="m 0,0 c 2.948,-0.047 5.95,0.234 8.863,-0.402 2.59,-0.973 2.787,-4.312 2.886,-6.764 -0.018,-2.245 0.17,-4.695 -0.107,-6.987 C 11.247,-17.371 8.81,-19.906 5.727,-20.29 3.89,-20.514 2.043,-20.692 0.187,-20.767 -0.18,-13.844 0.08,-6.922 0,0 m 18.453,-35.546 c -0.673,1.562 -1.318,3.124 -1.963,4.686 3.781,2.975 6.731,7.287 6.784,12.404 0.198,6.819 0.681,13.779 -0.654,20.495 -1.407,5.763 -6.605,9.869 -12.18,10.421 -6.236,0.591 -12.511,0.257 -18.77,0.28 l -2.088,0.028 c -0.375,0.007 -0.75,0.008 -1.126,0.02 v -0.005 l -0.349,0.005 v -61.721 c 3.953,0.038 7.905,0.038 11.866,0.047 0.053,5.369 0.045,10.739 0.053,16.099 h 4.643 c 2.294,-5.398 4.723,-10.72 7.026,-16.108 4.122,-0.019 8.237,-0.028 12.367,0.047 -1.684,4.518 -3.682,8.896 -5.609,13.302"
             style="fill:#f8ce78;fill-opacity:1;fill-rule:nonzero;stroke:none"
             id="path40" />
        </g>
        <g
           id="g42"
           transform="translate(495.8203,28.3179)">
          <path
             d="m 0,0 c -4.643,6.034 -11.768,8.877 -18.354,11.871 -2.447,1.207 -5.862,3.433 -4.697,6.791 1.103,2.853 4.527,2.703 6.973,2.591 4.087,-0.084 6.417,-4.144 8.747,-7.062 2.894,2.189 5.816,4.34 8.783,6.426 -2.384,6.174 -7.358,12.077 -14.035,12.75 -5.978,0.655 -12.377,-0.14 -17.207,-4.162 -5.351,-3.995 -7.304,-11.768 -5.278,-18.157 1.908,-5.407 6.623,-9.008 11.337,-11.59 4.059,-2.292 8.872,-3.284 12.322,-6.67 1.712,-1.581 1.945,-4.378 1.049,-6.482 -1.73,-3.134 -5.915,-4.425 -8.98,-2.676 -3.235,1.432 -4.974,4.78 -6.444,7.895 -3.343,-2.572 -6.471,-5.425 -9.428,-8.456 2.993,-8.344 11.723,-12.965 19.968,-12.572 6.121,-0.169 12.547,2.796 15.585,8.549 C 3.737,-14.667 4.669,-5.884 0,0"
             style="fill:#f8ce78;fill-opacity:1;fill-rule:nonzero;stroke:none"
             id="path44" />
        </g>
        <g
           id="g46"
           transform="translate(21.8125,14.1416)">
          <path
             d="m 0,0 c -2.823,-2.638 -6.838,-2.142 -10.333,-2.245 -0.018,5.37 -0.009,10.739 -0.018,16.108 2.832,-0.028 5.708,0.243 8.505,-0.393 C 3.074,11.375 4.221,3.415 0,0 m -10.351,28.091 v 7.867 h 6.228 c 2.035,0 3.684,-1.721 3.684,-3.844 v -2.171 c 0,-0.149 -0.009,-0.29 -0.027,-0.43 0.009,-0.018 0,-0.047 0,-0.065 -0.09,-0.87 -0.412,-1.675 -1.04,-2.218 -0.672,-0.701 -1.595,-1.131 -2.617,-1.131 h -4.391 c -0.367,0 -0.735,0.028 -1.102,0.093 -0.475,0.084 -0.664,0.318 -0.735,0.646 -0.072,0.355 -0.009,0.804 0,1.253 M 14.465,9.411 c -0.171,4.527 -1.649,8.923 -4.392,12.45 0.332,1.17 0.663,2.329 0.986,3.499 0.448,2.881 0.511,5.809 0.395,8.718 -0.01,0.103 -0.018,0.206 -0.018,0.318 -0.251,3.723 -1.936,8.11 -5.181,10.028 -1.719,1.016 -3.634,1.69 -5.619,2.139 l -0.001,0.003 c -8.024,2.047 -22.664,0.73 -22.664,0.73 -0.17,-20.552 -0.161,-41.112 -0.009,-61.664 6.999,0.028 14.008,-0.112 21.017,0.047 4.705,0.093 9.875,1.683 12.582,6.005 3.19,5.229 3.2,11.749 2.904,17.727"
             style="fill:#f8ce78;fill-opacity:1;fill-rule:nonzero;stroke:none"
             id="path48" />
        </g>
        <g
           id="g50"
           transform="translate(18.5044,93.4873)">
          <path
             d="M 0,0 H -14.45 V -14.563 H 2.336 v -4.432 H -18.847 V 22.1 H 2.107 V 17.668 H -14.45 V 4.431 l 14.45,0 z"
             style="fill:#f8ce78;fill-opacity:1;fill-rule:nonzero;stroke:none"
             id="path52" />
        </g>
        <g
           id="g54"
           transform="translate(36.6431,78.9238)">
          <path
             d="M 0,0 H 15.801 V -4.431 H -4.42 V 36.663 H 0 Z"
             style="fill:#f8ce78;fill-opacity:1;fill-rule:nonzero;stroke:none"
             id="path56" />
        </g>
        <g
           id="g58"
           transform="translate(67.7886,78.9238)">
          <path
             d="M 0,0 H 15.801 V -4.431 H -4.42 V 36.663 H 0 Z"
             style="fill:#f8ce78;fill-opacity:1;fill-rule:nonzero;stroke:none"
             id="path60" />
        </g>
        <path
           d="m 99.232,74.493 h -4.396 v 41.094 h 4.396 z"
           style="fill:#f8ce78;fill-opacity:1;fill-rule:nonzero;stroke:none"
           id="path62" />
        <g
           id="g64"
           transform="translate(134.4541,96.3662)">
          <path
             d="m 0,0 c 0,4.873 -0.794,8.613 -2.382,11.219 -1.588,2.606 -3.809,3.909 -6.664,3.909 -2.779,0 -4.966,-1.303 -6.561,-3.909 -1.595,-2.606 -2.415,-6.223 -2.461,-10.852 v -3.02 c 0,-4.723 0.805,-8.434 2.416,-11.134 1.61,-2.7 3.827,-4.05 6.652,-4.05 2.84,0 5.038,1.274 6.596,3.824 1.557,2.549 2.358,6.204 2.404,10.965 z m 4.374,-2.653 c 0,-4.027 -0.55,-7.54 -1.649,-10.541 -1.099,-3.002 -2.656,-5.292 -4.671,-6.873 -2.016,-1.58 -4.367,-2.371 -7.054,-2.371 -2.626,0 -4.954,0.795 -6.984,2.385 -2.031,1.59 -3.607,3.857 -4.729,6.802 -1.122,2.944 -1.699,6.355 -1.729,10.231 v 2.964 c 0,3.951 0.557,7.441 1.671,10.471 1.115,3.029 2.691,5.348 4.729,6.957 2.038,1.608 4.371,2.413 6.996,2.413 2.672,0 5.027,-0.795 7.065,-2.385 2.039,-1.59 3.607,-3.895 4.706,-6.915 1.099,-3.02 1.649,-6.533 1.649,-10.541 z"
             style="fill:#f8ce78;fill-opacity:1;fill-rule:nonzero;stroke:none"
             id="path66" />
        </g>
        <g
           id="g68"
           transform="translate(173.7524,111.1558)">
          <path
             d="m 0,0 h -10.717 v -36.663 h -4.374 V 0 H -25.786 V 4.431 H 0 Z"
             style="fill:#f8ce78;fill-opacity:1;fill-rule:nonzero;stroke:none"
             id="path70" />
        </g>
        <g
           id="g72"
           transform="translate(208.0127,111.1558)">
          <path
             d="m 0,0 h -10.717 v -36.663 h -4.374 V 0 H -25.786 V 4.431 H 0 Z"
             style="fill:#f8ce78;fill-opacity:1;fill-rule:nonzero;stroke:none"
             id="path74" />
        </g>
        <g
           id="g76"
           transform="translate(240.877,106.3296)">
          <path
             d="m 0,0 c 0,-1.807 0.9,-4.064 2.702,-6.774 l 2.702,2.343 c 1.038,0.903 1.748,1.764 2.13,2.582 0.382,0.819 0.573,1.811 0.573,2.978 0,1.26 -0.381,2.309 -1.145,3.147 C 6.198,5.113 5.236,5.532 4.076,5.532 2.824,5.532 1.832,5.009 1.1,3.965 0.366,2.921 0,1.599 0,0 m 3.825,-28.14 c 2.244,0 4.297,1.054 6.16,3.161 L 1.855,-12.983 1.1,-13.661 c -2.55,-2.314 -3.825,-4.694 -3.825,-7.14 0,-2.22 0.584,-3.999 1.752,-5.335 1.168,-1.336 2.767,-2.004 4.798,-2.004 m -10.786,7.339 c 0,1.975 0.446,3.791 1.339,5.447 0.893,1.655 2.6,3.584 5.118,5.786 -1.48,2.22 -2.473,4.007 -2.976,5.362 -0.504,1.355 -0.756,2.7 -0.756,4.037 0,3.123 0.748,5.569 2.244,7.337 1.496,1.769 3.526,2.654 6.092,2.654 2.29,0 4.182,-0.823 5.678,-2.47 1.496,-1.646 2.245,-3.721 2.245,-6.223 0,-1.656 -0.34,-3.185 -1.019,-4.587 -0.68,-1.401 -1.866,-2.874 -3.562,-4.417 l -2.45,-2.229 7.42,-10.923 c 1.038,2.446 1.558,5.165 1.558,8.157 h 3.824 c 0,-4.798 -0.939,-8.778 -2.817,-11.939 l 4.763,-7.028 h -5.084 l -2.22,3.246 c -1.13,-1.242 -2.455,-2.187 -3.974,-2.837 -1.52,-0.649 -3.066,-0.973 -4.637,-0.973 -3.252,0 -5.863,1.063 -7.833,3.189 -1.969,2.126 -2.953,4.929 -2.953,8.411"
             style="fill:#f8ce78;fill-opacity:1;fill-rule:nonzero;stroke:none"
             id="path78" />
        </g>
        <g
           id="g80"
           transform="translate(293.7334,115.5869)">
          <path
             d="M 0,0 10.9,-33.53 21.802,0 h 5.702 v -41.094 h -4.397 v 16.003 L 23.519,-7.818 12.573,-41.094 H 9.206 L -1.717,-7.903 -1.282,-25.091 V -41.094 H -5.679 V 0 Z"
             style="fill:#f8ce78;fill-opacity:1;fill-rule:nonzero;stroke:none"
             id="path82" />
        </g>
        <g
           id="g84"
           transform="translate(358.3838,115.5869)">
          <path
             d="m 0,0 v -27.942 c -0.016,-3.876 -1.005,-7.046 -2.966,-9.511 -1.962,-2.465 -4.623,-3.848 -7.981,-4.149 l -1.168,-0.057 c -3.649,0 -6.558,1.214 -8.725,3.641 -2.168,2.428 -3.267,5.767 -3.298,10.02 V 0 h 4.351 v -27.829 c 0,-2.973 0.665,-5.283 1.993,-6.929 1.328,-1.647 3.221,-2.47 5.679,-2.47 2.488,0 4.393,0.819 5.714,2.456 1.32,1.637 1.981,3.941 1.981,6.915 V 0 Z"
             style="fill:#f8ce78;fill-opacity:1;fill-rule:nonzero;stroke:none"
             id="path86" />
        </g>
        <g
           id="g88"
           transform="translate(375.6289,95.5479)">
          <path
             d="m 0,0 h 6.755 c 2.183,0 3.92,0.697 5.21,2.092 1.29,1.395 1.935,3.262 1.935,5.599 0,2.544 -0.614,4.495 -1.843,5.852 -1.23,1.358 -3.004,2.046 -5.325,2.065 H 0 Z M 7.832,-4.431 H 0 V -21.055 H -4.42 V 20.039 H 6.618 c 3.755,0 6.645,-1.054 8.668,-3.161 2.023,-2.107 3.034,-5.175 3.034,-9.201 0,-2.559 -0.561,-4.789 -1.683,-6.689 -1.122,-1.901 -2.684,-3.321 -4.683,-4.262 l 7.831,-17.442 v -0.339 h -4.717 z"
             style="fill:#f8ce78;fill-opacity:1;fill-rule:nonzero;stroke:none"
             id="path90" />
        </g>
        <g
           id="g92"
           transform="translate(410.416,95.5479)">
          <path
             d="m 0,0 h 6.755 c 2.183,0 3.92,0.697 5.21,2.092 1.29,1.395 1.935,3.262 1.935,5.599 0,2.544 -0.614,4.495 -1.843,5.852 -1.23,1.358 -3.004,2.046 -5.325,2.065 H 0 Z M 7.831,-4.431 H 0 V -21.055 H -4.42 V 20.039 H 6.618 c 3.755,0 6.645,-1.054 8.668,-3.161 2.023,-2.107 3.034,-5.175 3.034,-9.201 0,-2.559 -0.561,-4.789 -1.683,-6.689 -1.122,-1.901 -2.684,-3.321 -4.683,-4.262 l 7.831,-17.442 v -0.339 h -4.717 z"
             style="fill:#f8ce78;fill-opacity:1;fill-rule:nonzero;stroke:none"
             id="path94" />
        </g>
        <g
           id="g96"
           transform="translate(446.5771,89.6772)">
          <path
             d="M 0,0 H 11.335 L 5.656,19.221 Z M 12.641,-4.431 H -1.329 L -4.466,-15.185 H -9.001 L 3.732,25.91 H 7.58 l 12.755,-41.095 h -4.511 z"
             style="fill:#f8ce78;fill-opacity:1;fill-rule:nonzero;stroke:none"
             id="path98" />
        </g>
        <g
           id="g100"
           transform="translate(485.3252,94.9551)">
          <path
             d="m 0,0 8.702,20.632 h 4.993 L 2.198,-5.137 v -15.325 h -4.396 v 15.325 l -11.496,25.769 h 5.038 z"
             style="fill:#f8ce78;fill-opacity:1;fill-rule:nonzero;stroke:none"
             id="path102" />
        </g>
      </g>
    </g>
  </g>
</svg>
