<?xml version="1.0" encoding="UTF-8" standalone="no"?>
<!-- Created with Inkscape (http://www.inkscape.org/) -->

<svg
   version="1.1"
   id="svg2"
   width="301.36533"
   height="164.65199"
   viewBox="0 0 301.36533 164.65199"
   sodipodi:docname="logo.ai"
   xmlns:inkscape="http://www.inkscape.org/namespaces/inkscape"
   xmlns:sodipodi="http://sodipodi.sourceforge.net/DTD/sodipodi-0.dtd"
   xmlns="http://www.w3.org/2000/svg"
   xmlns:svg="http://www.w3.org/2000/svg">
  <defs
     id="defs6">
    <clipPath
       clipPathUnits="userSpaceOnUse"
       id="clipPath18">
      <path
         d="M 0,123.489 H 226.024 V 0 H 0 Z"
         id="path16" />
    </clipPath>
  </defs>
  <sodipodi:namedview
     id="namedview4"
     pagecolor="#ffffff"
     bordercolor="#000000"
     borderopacity="0.25"
     inkscape:showpageshadow="2"
     inkscape:pageopacity="0.0"
     inkscape:pagecheckerboard="0"
     inkscape:deskcolor="#d1d1d1" />
  <g
     id="g8"
     inkscape:groupmode="layer"
     inkscape:label="logo"
     transform="matrix(1.3333333,0,0,-1.3333333,0,164.652)">
    <path
       d="m 113.147,67.036 h 0.24 v 3.361 h -0.24 z"
       style="fill:#4c5a6f;fill-opacity:1;fill-rule:nonzero;stroke:none"
       id="path10" />
    <g
       id="g12">
      <g
         id="g14"
         clip-path="url(#clipPath18)">
        <g
           id="g20"
           transform="translate(110.4431,97.1646)">
          <path
             d="m 0,0 c 21.47,-11.563 43.028,-23.024 64.499,-34.608 -6.069,6.502 -13.748,11.42 -20.059,17.674 L 44.328,0.605 c 0.018,1.027 0.02,2.054 -0.02,3.078 -4.038,0 -8.076,0.041 -12.114,0.082 0,-3.415 -0.066,-6.831 -0.066,-10.246 C 21.206,2.551 10.547,11.831 -0.154,21.09 -19.749,3.663 -39.917,-13.189 -59.423,-30.719 -39.586,-20.535 -19.815,-10.226 0,0"
             style="fill:#4c5a6f;fill-opacity:1;fill-rule:nonzero;stroke:none"
             id="path22" />
        </g>
        <path
           d="M 109.097,62.186 H 98.991 v 8.93 h 10.106 z"
           style="fill:#4c5a6f;fill-opacity:1;fill-rule:nonzero;stroke:none"
           id="path24" />
        <path
           d="m 122.48,62.186 h -10.106 v 8.93 h 10.106 z"
           style="fill:#4c5a6f;fill-opacity:1;fill-rule:nonzero;stroke:none"
           id="path26" />
        <path
           d="M 109.097,73.585 H 98.991 v 8.93 h 10.106 z"
           style="fill:#4c5a6f;fill-opacity:1;fill-rule:nonzero;stroke:none"
           id="path28" />
        <path
           d="m 122.48,73.585 h -10.106 v 8.93 h 10.106 z"
           style="fill:#4c5a6f;fill-opacity:1;fill-rule:nonzero;stroke:none"
           id="path30" />
        <g
           id="g32"
           transform="translate(53.8147,22.4927)">
          <path
             d="m 0,0 -0.001,0.067 v 9.127 h -0.08 V 9.196 H -0.186 L -0.191,9.194 h -4.586 -0.372 c 0.062,-3.848 -0.004,-7.7 0.02,-11.548 -0.032,-2.403 0.124,-4.823 -0.152,-7.218 -0.263,-3.075 -4.43,-3.986 -6.287,-1.898 -0.737,0.825 -0.934,1.991 -0.97,3.079 -0.108,5.851 0.094,11.71 -0.104,17.557 -1.675,-0.016 -3.346,-0.016 -5.021,-0.024 -0.085,-5.855 -0.011,-11.71 -0.042,-17.561 0.008,-2.355 0.147,-4.961 1.686,-6.842 1.322,-1.679 3.427,-2.363 5.432,-2.594 2.767,-0.238 5.826,-0.061 8.101,1.797 1.845,1.521 2.416,4.111 2.45,6.45 0.02,1.667 0.024,3.341 0.024,5.013 L -0.001,-4.64 V 0 Z"
             style="fill:#4c5a6f;fill-opacity:1;fill-rule:nonzero;stroke:none"
             id="path34" />
        </g>
        <g
           id="g36"
           transform="translate(73.7239,31.6465)">
          <path
             d="m 0,0 c -1.667,0.008 -3.333,0.004 -5,-0.024 l 0.003,-26.637 c 1.671,-0.02 3.338,-0.016 5.009,-0.02 z"
             style="fill:#4c5a6f;fill-opacity:1;fill-rule:nonzero;stroke:none"
             id="path38" />
        </g>
        <g
           id="g40"
           transform="translate(101.9724,9.8736)">
          <path
             d="m 0,0 h -7.947 v 0.437 21.344 h -0.159 l -4.974,-0.012 c -0.073,-8.89 -0.023,-17.775 -0.019,-26.661 h 0.019 c 4.579,-0.024 9.161,-0.024 13.743,-0.004 L 0.717,0 C 0.477,-0.004 0.24,-0.004 0,0"
             style="fill:#4c5a6f;fill-opacity:1;fill-rule:nonzero;stroke:none"
             id="path42" />
        </g>
        <g
           id="g44"
           transform="translate(128.5813,14.106)">
          <path
             d="m 0,0 c 0.031,-1.614 -0.849,-3.269 -2.349,-3.815 -1.691,-0.316 -3.412,-0.138 -5.117,-0.15 0.004,5.446 0,10.896 0,16.342 1.701,-0.032 3.423,0.15 5.105,-0.157 1.524,-0.478 2.369,-2.141 2.353,-3.731 C 0.058,5.661 0.035,2.829 0,0 m 5.078,5.653 c -0.07,2.893 0.388,6.053 -1.108,8.659 -0.906,1.579 -2.477,2.509 -4.157,2.928 v 0.001 c -0.003,0 -0.005,0.001 -0.007,0.001 -0.591,0.147 -1.194,0.232 -1.787,0.258 -0.19,0.008 -0.38,0.011 -0.571,0.017 -4.959,0.434 -10.028,0.072 -10.028,0.072 -0.007,-8.898 0.039,-17.795 -0.023,-26.693 2.884,-0.073 5.776,-0.024 8.665,-0.044 1.597,0 3.256,-0.057 4.764,0.594 1,0.405 1.814,1.125 2.566,1.906 0.535,0.559 0.926,1.242 1.132,1.999 0.903,3.326 0.457,6.875 0.554,10.302"
             style="fill:#4c5a6f;fill-opacity:1;fill-rule:nonzero;stroke:none"
             id="path46" />
        </g>
        <g
           id="g48"
           transform="translate(155.074,9.9102)">
          <path
             d="m 0,0 h -1.512 v 6.009 c 0.775,0.008 1.547,0.004 2.318,0 C 1.535,6.004 2.26,6 2.985,6.009 h 2.372 v 5.256 h -6.935 c 0.004,1.768 0.008,3.536 0.008,5.3 h 7.869 c 0.241,0 0.477,0 0.717,-0.004 v 0.004 5.147 0.004 H 6.559 c -3.16,0.036 -6.319,0.02 -9.482,0.02 L -6.614,21.745 -6.652,-4.937 C -2.074,-4.94 2.504,-4.953 7.082,-4.932 V 0 C 4.721,0 2.36,0.02 0,0"
             style="fill:#4c5a6f;fill-opacity:1;fill-rule:nonzero;stroke:none"
             id="path50" />
        </g>
        <g
           id="g52"
           transform="translate(181.7639,26.1192)">
          <path
             d="M 0,0 C 1.275,-0.02 2.574,0.102 3.834,-0.174 4.954,-0.595 5.04,-2.039 5.082,-3.099 5.074,-4.07 5.156,-5.13 5.036,-6.122 4.865,-7.514 3.811,-8.61 2.477,-8.776 1.683,-8.873 0.884,-8.95 0.082,-8.982 -0.078,-5.988 0.035,-2.994 0,0 m 7.982,-15.375 c -0.291,0.675 -0.57,1.351 -0.849,2.027 1.636,1.286 2.911,3.152 2.934,5.365 0.086,2.95 0.295,5.96 -0.283,8.865 C 9.176,3.375 6.927,5.151 4.516,5.39 1.819,5.646 -0.896,5.501 -3.603,5.511 L -4.506,5.523 C -4.668,5.526 -4.831,5.527 -4.993,5.531 V 5.529 l -0.151,0.002 v -26.697 c 1.709,0.017 3.419,0.017 5.132,0.02 0.024,2.323 0.02,4.646 0.024,6.964 H 2.02 c 0.992,-2.335 2.042,-4.637 3.039,-6.967 1.783,-0.009 3.563,-0.013 5.35,0.02 -0.729,1.954 -1.594,3.848 -2.427,5.754"
             style="fill:#4c5a6f;fill-opacity:1;fill-rule:nonzero;stroke:none"
             id="path54" />
        </g>
        <g
           id="g56"
           transform="translate(220.7903,17.3247)">
          <path
             d="m 0,0 c -2.008,2.61 -5.09,3.84 -7.939,5.135 -1.059,0.522 -2.536,1.485 -2.032,2.937 0.477,1.234 1.958,1.17 3.016,1.121 1.768,-0.036 2.776,-1.793 3.784,-3.055 1.252,0.947 2.516,1.878 3.799,2.78 -1.031,2.67 -3.183,5.224 -6.071,5.515 -2.585,0.283 -5.353,-0.061 -7.443,-1.801 -2.314,-1.727 -3.159,-5.09 -2.283,-7.853 0.826,-2.339 2.865,-3.897 4.904,-5.014 1.756,-0.991 3.838,-1.42 5.33,-2.885 0.741,-0.683 0.841,-1.893 0.454,-2.804 -0.748,-1.355 -2.559,-1.913 -3.885,-1.157 -1.399,0.619 -2.151,2.068 -2.787,3.415 -1.446,-1.112 -2.799,-2.347 -4.078,-3.658 1.295,-3.609 5.07,-5.608 8.637,-5.438 2.648,-0.072 5.427,1.21 6.741,3.699 C 1.617,-6.344 2.02,-2.545 0,0"
             style="fill:#4c5a6f;fill-opacity:1;fill-rule:nonzero;stroke:none"
             id="path58" />
        </g>
        <g
           id="g60"
           transform="translate(15.7576,11.1929)">
          <path
             d="m 0,0 c -1.221,-1.141 -2.958,-0.927 -4.47,-0.971 -0.008,2.323 -0.004,4.645 -0.008,6.968 1.226,-0.013 2.47,0.105 3.68,-0.17 C 1.33,4.92 1.826,1.477 0,0 m -4.478,12.151 v 3.403 h 2.695 c 0.88,0 1.593,-0.745 1.593,-1.663 v -0.939 c 0,-0.065 -0.004,-0.125 -0.012,-0.186 0.004,-0.008 0,-0.02 0,-0.029 -0.038,-0.376 -0.178,-0.724 -0.449,-0.959 -0.291,-0.303 -0.69,-0.489 -1.132,-0.489 h -1.9 c -0.158,0 -0.317,0.012 -0.477,0.041 -0.205,0.036 -0.286,0.137 -0.318,0.278 -0.03,0.154 -0.003,0.349 0,0.543 M 6.257,4.07 c -0.074,1.959 -0.714,3.861 -1.9,5.386 0.144,0.506 0.287,1.007 0.427,1.513 0.194,1.246 0.221,2.513 0.171,3.771 -0.004,0.045 -0.008,0.09 -0.008,0.138 -0.109,1.61 -0.838,3.508 -2.241,4.337 -0.744,0.44 -1.572,0.732 -2.431,0.926 v 0.001 c -3.471,0.885 -9.803,0.316 -9.803,0.316 -0.074,-8.89 -0.07,-17.784 -0.004,-26.673 3.027,0.012 6.059,-0.049 9.09,0.02 2.035,0.041 4.272,0.729 5.443,2.598 1.38,2.262 1.384,5.082 1.256,7.667"
             style="fill:#4c5a6f;fill-opacity:1;fill-rule:nonzero;stroke:none"
             id="path62" />
        </g>
        <g
           id="g64"
           transform="translate(14.3269,45.5137)">
          <path
             d="M 0,0 H -6.25 V -6.299 H 1.01 V -8.216 H -8.152 V 9.559 H 0.911 V 7.643 H -6.25 V 1.917 H 0 Z"
             style="fill:#4c5a6f;fill-opacity:1;fill-rule:nonzero;stroke:none"
             id="path66" />
        </g>
        <g
           id="g68"
           transform="translate(22.1726,39.2144)">
          <path
             d="M 0,0 H 6.835 V -1.917 H -1.912 V 15.858 H 0 Z"
             style="fill:#4c5a6f;fill-opacity:1;fill-rule:nonzero;stroke:none"
             id="path70" />
        </g>
        <g
           id="g72"
           transform="translate(35.6448,39.2144)">
          <path
             d="M 0,0 H 6.835 V -1.917 H -1.912 V 15.858 H 0 Z"
             style="fill:#4c5a6f;fill-opacity:1;fill-rule:nonzero;stroke:none"
             id="path74" />
        </g>
        <path
           d="m 49.246,37.298 h -1.902 v 17.775 h 1.902 z"
           style="fill:#4c5a6f;fill-opacity:1;fill-rule:nonzero;stroke:none"
           id="path76" />
        <g
           id="g78"
           transform="translate(64.4812,46.7593)">
          <path
             d="m 0,0 c 0,2.108 -0.344,3.725 -1.03,4.853 -0.687,1.127 -1.648,1.69 -2.883,1.69 -1.202,0 -2.148,-0.563 -2.838,-1.69 -0.69,-1.128 -1.045,-2.692 -1.065,-4.694 v -1.307 c 0,-2.043 0.348,-3.648 1.045,-4.816 0.697,-1.168 1.656,-1.752 2.878,-1.752 1.228,0 2.179,0.551 2.852,1.654 0.674,1.103 1.021,2.684 1.041,4.743 z m 1.892,-1.148 c 0,-1.742 -0.238,-3.262 -0.713,-4.56 -0.476,-1.298 -1.15,-2.289 -2.021,-2.972 -0.872,-0.684 -1.889,-1.026 -3.051,-1.026 -1.136,0 -2.143,0.344 -3.022,1.032 -0.877,0.688 -1.56,1.668 -2.045,2.942 -0.485,1.274 -0.735,2.749 -0.748,4.425 v 1.283 c 0,1.709 0.241,3.218 0.723,4.529 0.483,1.31 1.164,2.313 2.046,3.009 0.881,0.696 1.89,1.044 3.026,1.044 1.156,0 2.174,-0.344 3.056,-1.032 C 0.024,6.838 0.703,5.841 1.179,4.535 1.654,3.229 1.892,1.709 1.892,-0.024 Z"
             style="fill:#4c5a6f;fill-opacity:1;fill-rule:nonzero;stroke:none"
             id="path80" />
        </g>
        <g
           id="g82"
           transform="translate(81.4798,53.1563)">
          <path
             d="M 0,0 H -4.636 V -15.858 H -6.528 V 0 h -4.626 V 1.917 H 0 Z"
             style="fill:#4c5a6f;fill-opacity:1;fill-rule:nonzero;stroke:none"
             id="path84" />
        </g>
        <g
           id="g86"
           transform="translate(96.2991,53.1563)">
          <path
             d="M 0,0 H -4.636 V -15.858 H -6.528 V 0 h -4.626 V 1.917 H 0 Z"
             style="fill:#4c5a6f;fill-opacity:1;fill-rule:nonzero;stroke:none"
             id="path88" />
        </g>
        <g
           id="g90"
           transform="translate(110.5144,51.0689)">
          <path
             d="m 0,0 c 0,-0.782 0.39,-1.758 1.169,-2.93 l 1.169,1.013 c 0.449,0.391 0.756,0.763 0.921,1.117 0.165,0.354 0.248,0.783 0.248,1.288 0,0.545 -0.166,0.999 -0.496,1.361 C 2.681,2.211 2.265,2.393 1.763,2.393 1.222,2.393 0.792,2.167 0.476,1.715 0.159,1.263 0,0.691 0,0 m 1.654,-12.172 c 0.971,0 1.859,0.456 2.665,1.367 L 0.802,-5.616 0.476,-5.909 c -1.103,-1.001 -1.655,-2.031 -1.655,-3.089 0,-0.96 0.253,-1.729 0.758,-2.307 0.505,-0.578 1.197,-0.867 2.075,-0.867 m -4.665,3.174 c 0,0.855 0.193,1.64 0.579,2.356 0.387,0.717 1.124,1.551 2.214,2.503 -0.64,0.96 -1.07,1.734 -1.288,2.32 -0.218,0.586 -0.327,1.168 -0.327,1.746 0,1.35 0.324,2.408 0.971,3.174 0.647,0.765 1.526,1.147 2.635,1.147 0.991,0 1.81,-0.356 2.456,-1.068 C 4.877,2.468 5.201,1.57 5.201,0.488 5.201,-0.228 5.053,-0.89 4.76,-1.496 4.466,-2.102 3.952,-2.739 3.219,-3.406 L 2.16,-4.371 5.369,-9.095 c 0.449,1.057 0.673,2.234 0.673,3.528 h 1.655 c 0,-2.076 -0.406,-3.797 -1.219,-5.164 l 2.061,-3.04 H 6.34 l -0.961,1.404 c -0.489,-0.537 -1.062,-0.946 -1.719,-1.227 -0.657,-0.281 -1.326,-0.421 -2.006,-0.421 -1.406,0 -2.536,0.459 -3.387,1.379 -0.852,0.92 -1.278,2.133 -1.278,3.638"
             style="fill:#4c5a6f;fill-opacity:1;fill-rule:nonzero;stroke:none"
             id="path92" />
        </g>
        <g
           id="g94"
           transform="translate(133.3777,55.0728)">
          <path
             d="M 0,0 4.715,-14.503 9.43,0 h 2.466 V -17.775 H 9.995 v 6.922 l 0.178,7.472 -4.735,-14.394 H 3.982 l -4.725,14.357 0.188,-7.435 v -6.922 h -1.902 l 0,17.775 z"
             style="fill:#4c5a6f;fill-opacity:1;fill-rule:nonzero;stroke:none"
             id="path96" />
        </g>
        <g
           id="g98"
           transform="translate(161.3421,55.0728)">
          <path
             d="m 0,0 v -12.086 c -0.007,-1.677 -0.435,-3.048 -1.283,-4.114 -0.848,-1.067 -1.999,-1.664 -3.452,-1.795 l -0.505,-0.024 c -1.579,0 -2.837,0.525 -3.774,1.575 -0.938,1.049 -1.414,2.494 -1.427,4.334 V 0 h 1.882 v -12.037 c 0,-1.286 0.288,-2.285 0.862,-2.997 0.574,-0.713 1.393,-1.069 2.457,-1.069 1.076,0 1.9,0.354 2.471,1.062 0.571,0.708 0.857,1.706 0.857,2.992 l 0,12.049 z"
             style="fill:#4c5a6f;fill-opacity:1;fill-rule:nonzero;stroke:none"
             id="path100" />
        </g>
        <g
           id="g102"
           transform="translate(168.8015,46.4053)">
          <path
             d="m 0,0 h 2.922 c 0.944,0 1.695,0.301 2.253,0.905 0.558,0.603 0.838,1.41 0.838,2.422 0,1.1 -0.266,1.944 -0.798,2.531 C 4.684,6.445 3.916,6.743 2.912,6.751 H 0 Z M 3.388,-1.917 H 0 v -7.19 H -1.912 V 8.667 H 2.862 C 4.487,8.667 5.737,8.212 6.612,7.3 7.487,6.389 7.924,5.062 7.924,3.32 7.924,2.213 7.682,1.249 7.196,0.427 6.711,-0.395 6.036,-1.009 5.17,-1.417 l 3.388,-7.544 v -0.146 h -2.04 z"
             style="fill:#4c5a6f;fill-opacity:1;fill-rule:nonzero;stroke:none"
             id="path104" />
        </g>
        <g
           id="g106"
           transform="translate(183.8484,46.4053)">
          <path
             d="m 0,0 h 2.922 c 0.945,0 1.696,0.301 2.254,0.905 0.558,0.603 0.837,1.41 0.837,2.422 0,1.1 -0.266,1.944 -0.798,2.531 C 4.684,6.445 3.916,6.743 2.912,6.751 H 0 Z M 3.388,-1.917 H 0 v -7.19 H -1.912 V 8.667 H 2.863 C 4.487,8.667 5.737,8.212 6.612,7.3 7.487,6.389 7.924,5.062 7.924,3.32 7.924,2.213 7.682,1.249 7.196,0.427 6.711,-0.395 6.036,-1.009 5.171,-1.417 L 8.559,-8.961 V -9.107 H 6.518 Z"
             style="fill:#4c5a6f;fill-opacity:1;fill-rule:nonzero;stroke:none"
             id="path108" />
        </g>
        <g
           id="g110"
           transform="translate(199.49,43.8658)">
          <path
             d="M 0,0 H 4.903 L 2.447,8.314 Z M 5.468,-1.917 H -0.575 L -1.932,-6.568 H -3.893 L 1.615,11.207 H 3.279 L 8.796,-6.568 H 6.845 Z"
             style="fill:#4c5a6f;fill-opacity:1;fill-rule:nonzero;stroke:none"
             id="path112" />
        </g>
        <g
           id="g114"
           transform="translate(216.2507,46.149)">
          <path
             d="m 0,0 3.764,8.924 h 2.16 L 0.951,-2.222 v -6.629 h -1.902 v 6.629 L -5.924,8.924 h 2.18 z"
             style="fill:#4c5a6f;fill-opacity:1;fill-rule:nonzero;stroke:none"
             id="path116" />
        </g>
      </g>
    </g>
  </g>
</svg>
